<?xml version="1.0" standalone="no"?>
<!DOCTYPE svg PUBLIC "-//W3C//DTD SVG 20010904//EN"
 "http://www.w3.org/TR/2001/REC-SVG-20010904/DTD/svg10.dtd">
<svg version="1.0" xmlns="http://www.w3.org/2000/svg"
 width="200.000000pt" height="200.000000pt" viewBox="0 0 200.000000 200.000000"
 preserveAspectRatio="xMidYMid meet">
<metadata>
Created by potrace 1.11, written by Peter Selinger 2001-2013
</metadata>
<g transform="translate(0.000000,200.000000) scale(0.100000,-0.100000)"
fill="#000000" stroke="none">
<path d="M566 1442 c-13 -3 -16 -11 -11 -45 25 -176 25 -221 2 -245 -19 -18
-70 -19 -160 -2 -37 7 -78 9 -93 6 -35 -9 -56 -61 -49 -127 11 -104 54 -148
132 -135 21 3 65 9 99 12 61 6 61 6 71 -22 5 -16 8 -38 7 -49 -4 -45 -25 -206
-30 -234 l-6 -31 101 -1 c55 0 120 -1 144 -2 63 -1 92 10 105 38 16 35 15 80
-3 139 -19 62 -21 125 -7 153 28 51 168 57 210 8 27 -32 28 -65 2 -147 -24
-75 -25 -110 -6 -146 24 -46 49 -52 219 -56 l159 -3 -7 45 c-4 24 -9 54 -11
65 -3 12 -5 60 -5 106 1 132 27 151 156 118 100 -27 141 -6 154 79 8 58 -4
116 -29 139 -22 19 -68 22 -125 6 -55 -14 -106 -5 -133 25 -25 28 -25 64 -2
184 6 30 13 67 15 83 l5 27 -137 0 c-76 0 -147 -3 -159 -6 -37 -10 -53 -52
-49 -133 4 -74 -4 -112 -28 -136 -15 -14 -72 -31 -97 -29 -8 1 -23 2 -32 3 -9
0 -29 12 -44 25 -26 22 -28 28 -25 92 7 156 7 155 -18 175 -18 15 -40 19 -105
19 -44 1 -106 2 -137 3 -30 1 -63 1 -73 -1z"/>
<path d="M923 783 c-19 -7 -16 -53 3 -60 20 -7 49 9 50 28 1 30 -23 45 -53 32z"/>
<path d="M1002 778 c-29 -29 1 -68 42 -52 28 11 13 64 -19 64 -6 0 -16 -5 -23
-12z"/>
<path d="M1172 341 c4 -13 18 -16 19 -4 0 4 -5 9 -11 12 -7 2 -11 -2 -8 -8z"/>
</g>
</svg>
